<svg width="1046" height="921" viewBox="0 0 1046 921" fill="none" xmlns="http://www.w3.org/2000/svg">
<mask id="mask0_14_113" style="mask-type:luminance" maskUnits="userSpaceOnUse" x="0" y="0" width="1046" height="921">
<path d="M0 0H1046V920.945H0V0Z" fill="white"/>
</mask>
<g mask="url(#mask0_14_113)">
<g opacity="0.1">
<path d="M907.65 254.492C965.66 31.775 750.773 9.10528 595.699 76.3541C505.22 110.939 445.801 3.38217 333.715 46.3068C221.629 89.2315 355.997 224.444 184.493 293.84C12.9873 363.234 96.7146 673.723 246.613 677.3C396.51 680.877 355.322 733.102 505.22 852.578C655.118 972.051 907.65 806.074 844.85 630.798C782.057 455.522 844.857 495.585 907.65 254.492Z" stroke="white" stroke-width="3"/>
<path d="M585.033 427.819C591.726 406.607 560.377 372.386 535.169 386.991C512.085 400.364 488.579 391.344 473.049 397.307C432.165 413.003 447.203 421.311 428.927 439.953C406.687 462.638 396.075 522.039 447.203 522.039C489.254 522.039 476.672 543.678 508.161 553.266C539.648 562.855 575.359 546.534 575.359 503.563C575.359 487.427 573.885 463.15 585.033 427.819Z" stroke="white" stroke-width="3"/>
<path d="M878.326 269.166C931.665 64.7684 733.469 41.0487 590.2 103.512C505.849 136.168 449.694 37.5694 346.386 77.1333C240.774 117.583 364.293 241.259 206.718 306.04C48.7827 371.189 123.933 658.852 264.852 662.104C404.946 665.355 366.358 714.8 505.492 824.284C644.625 933.771 877.443 781.397 820.359 618.149C763.27 457.34 820.228 491.554 878.326 269.166Z" stroke="white" stroke-width="3"/>
<path d="M849.001 283.842C897.677 97.7628 716.165 72.9925 584.702 130.67C506.476 161.398 453.587 71.7569 359.057 107.961C259.917 145.935 372.588 258.075 228.943 318.242C84.5773 379.144 151.152 643.98 283.091 646.907C413.381 649.834 377.394 696.498 505.763 795.993C634.132 895.484 847.242 756.722 795.862 605.501C744.482 459.16 795.593 487.524 849.001 283.842Z" stroke="white" stroke-width="3"/>
<path d="M819.677 298.519C863.688 130.758 698.859 104.938 579.202 157.829C507.104 186.629 457.48 105.946 371.727 138.79C279.06 174.289 380.883 274.892 251.168 330.445C120.372 387.1 178.37 629.111 301.331 631.712C421.816 634.313 388.43 678.197 506.034 767.702C623.638 857.205 817.035 732.046 771.364 592.854C725.7 460.98 770.964 483.496 819.677 298.519Z" stroke="white" stroke-width="3"/>
<path d="M790.346 313.196C829.7 163.754 681.554 136.884 573.703 184.989C507.732 211.861 461.372 140.136 384.397 169.62C298.203 202.643 389.179 291.709 273.393 342.648C156.166 395.058 205.588 614.241 319.57 616.518C430.251 618.794 399.465 659.897 506.305 739.413C613.145 818.928 786.834 707.372 746.873 580.207C706.91 462.8 746.335 479.467 790.346 313.196Z" stroke="white" stroke-width="3"/>
<path d="M761.022 328.617C795.705 197.494 664.248 169.574 568.204 212.893C508.359 237.837 465.264 175.069 397.068 201.193C317.346 231.741 397.473 309.27 295.618 355.595C191.96 403.758 232.806 600.116 337.809 602.067C438.685 604.018 410.5 642.341 506.575 711.867C602.65 781.393 756.627 683.442 722.376 568.305C688.123 465.365 721.706 476.183 761.022 328.617Z" stroke="white" stroke-width="3"/>
<path d="M731.698 344.919C761.717 232.113 646.942 203.143 562.704 241.676C508.986 264.692 469.156 210.882 409.737 233.646C336.488 261.719 405.767 327.711 317.842 369.422C227.754 413.339 260.023 586.87 356.047 588.496C447.119 590.122 421.534 625.664 506.845 685.201C592.156 744.737 726.42 660.391 697.878 557.282C669.334 468.809 697.074 473.777 731.698 344.919Z" stroke="white" stroke-width="3"/>
<path d="M702.371 361.269C727.722 266.782 629.635 236.761 557.203 270.509C509.612 291.596 473.047 246.744 422.406 266.147C355.63 291.745 414.061 346.201 340.065 383.298C263.547 422.968 287.24 573.673 374.285 574.974C455.553 576.275 432.568 609.037 507.114 658.583C581.661 708.13 696.214 637.389 673.38 546.308C650.546 472.303 672.443 471.422 702.371 361.269Z" stroke="white" stroke-width="3"/>
<path d="M673.043 377.688C693.731 301.52 612.327 270.45 551.701 299.411C510.237 318.57 476.936 282.677 435.073 298.719C374.77 321.842 422.353 364.76 362.287 397.244C299.339 432.667 314.455 560.547 392.521 561.522C463.984 562.498 443.601 592.479 507.382 632.036C571.164 671.594 666.007 614.457 648.881 535.404C631.755 475.866 647.81 469.136 673.043 377.688Z" stroke="white" stroke-width="3"/>
<path d="M643.713 394.213C659.737 336.363 595.017 304.242 546.197 328.418C510.86 345.648 480.824 318.713 447.739 331.396C393.908 352.042 430.643 383.425 384.507 411.294C335.128 442.471 341.669 547.524 410.755 548.175C472.415 548.825 454.632 576.026 507.648 605.593C560.666 635.161 635.798 591.629 624.38 524.604C612.963 479.533 623.176 466.954 643.713 394.213Z" stroke="white" stroke-width="3"/>
<path d="M614.379 410.894C625.737 371.362 577.703 338.192 540.689 357.582C511.479 372.884 484.707 354.906 460.4 364.229C413.042 382.4 438.929 402.246 406.723 425.501C370.913 452.432 368.878 534.659 428.985 534.984C480.84 535.31 465.658 559.729 507.91 579.307C550.163 598.886 605.584 568.959 599.875 513.962C594.166 483.357 598.536 464.929 614.379 410.894Z" stroke="white" stroke-width="3"/>
</g>
</g>
</svg>
